<?xml version="1.0" standalone="no"?>
<!DOCTYPE svg PUBLIC "-//W3C//DTD SVG 20010904//EN"
 "http://www.w3.org/TR/2001/REC-SVG-20010904/DTD/svg10.dtd">
<svg version="1.0" xmlns="http://www.w3.org/2000/svg"
 width="500.000000pt" height="500.000000pt" viewBox="0 0 500.000000 500.000000"
 preserveAspectRatio="xMidYMid meet">
<metadata>
Created by potrace 1.11, written by Peter Selinger 2001-2013
</metadata>
<g transform="translate(0.000000,500.000000) scale(0.100000,-0.100000)"
fill="#000000" stroke="none">
<path d="M2210 3867 c-137 -41 -267 -143 -334 -263 -30 -54 -63 -158 -70 -224
-3 -25 -5 -45 -5 -45 -821 0 -935 -3 -1008 -24 -18 -5 -33 -7 -33 -4 0 3 -6 1
-12 -4 -7 -5 -35 -18 -63 -28 -71 -26 -146 -76 -204 -136 -42 -44 -82 -117
-266 -482 l-215 -430 0 -521 c1 -579 2 -595 65 -715 42 -79 113 -157 187 -205
102 -65 186 -88 328 -92 124 -2 119 -1 116 -21 -6 -39 26 -158 61 -229 51
-104 140 -192 250 -246 288 -143 641 -7 758 293 13 33 24 62 24 64 0 3 3 15 5
28 4 18 14 87 16 107 0 4 1339 5 1376 1 6 0 11 -11 10 -24 -3 -40 23 -143 50
-203 50 -110 137 -202 245 -259 285 -150 631 -30 766 265 23 50 50 163 47 197
-1 13 1 23 5 24 3 0 56 2 116 4 116 3 177 16 266 59 140 66 257 213 293 366
22 96 23 2242 1 2337 -23 96 -71 186 -139 256 -69 72 -132 113 -226 148 l-65
24 -1135 2 -1135 2 -75 -22z"/>
</g>
</svg>
